<svg xmlns="http://www.w3.org/2000/svg" viewBox="0 0 64 64" role="img" aria-labelledby="title">
  <title id="title">방어 역할</title>
  <defs>
    <linearGradient id="face" x1="0" y1="0" x2="0" y2="1">
      <stop stop-color="#4d9ff2"/>
      <stop offset="1" stop-color="#17529b"/>
    </linearGradient>
    <filter id="shadow" x="-20%" y="-20%" width="140%" height="150%">
      <feDropShadow dx="0" dy="2" stdDeviation="2" flood-color="#00182f" flood-opacity=".72"/>
    </filter>
  </defs>
  <g filter="url(#shadow)">
    <rect x="4" y="4" width="56" height="56" rx="10" fill="#103b72" stroke="#a9d7ff" stroke-width="3"/>
    <rect x="8" y="8" width="48" height="48" rx="7" fill="url(#face)"/>
    <path fill="#fff" d="M32 13.5c6 4.6 11.9 6.6 18 7.5v10.2c0 10.6-6.1 16.6-18 20.3-11.9-3.7-18-9.7-18-20.3V21c6.1-.9 12-2.9 18-7.5Z"/>
    <path fill="#a9d7ff" d="M32 20.1c3.9 2.6 7.8 4 11.8 4.8v6.3c0 6.9-3.8 11.1-11.8 14.2z"/>
  </g>
</svg>
