<svg xmlns="http://www.w3.org/2000/svg" viewBox="0 0 96 64" role="img" aria-labelledby="title">
  <title id="title">강화 +1</title>
  <defs>
    <linearGradient id="edge" x1="0" y1="0" x2="1" y2="1">
      <stop offset="0" stop-color="#ffe0a3"/>
      <stop offset=".45" stop-color="#a95f27"/>
      <stop offset="1" stop-color="#eebd68"/>
    </linearGradient>
    <linearGradient id="face" x1="0" y1="0" x2="0" y2="1">
      <stop stop-color="#80461f"/>
      <stop offset="1" stop-color="#3c2117"/>
    </linearGradient>
    <filter id="shadow" x="-20%" y="-20%" width="140%" height="150%">
      <feDropShadow dx="0" dy="2" stdDeviation="2" flood-color="#120600" flood-opacity=".72"/>
    </filter>
  </defs>
  <g filter="url(#shadow)">
    <path fill="url(#edge)" d="M13 5h70l10 12v29L81 59H15L3 47V18z"/>
    <path fill="#442719" d="M15 9h66l8 10v25L79 55H17L7 45V20z"/>
    <path fill="url(#face)" stroke="#efb664" stroke-width="1.5" d="M18 13h60l7 8v21l-8 9H19l-8-8V22z"/>
    <path fill="#ffd791" d="M12 23h3v17h-3zm69 0h3v17h-3z" opacity=".62"/>
    <circle cx="17" cy="19" r="2" fill="#ffe0a3"/>
    <circle cx="79" cy="45" r="2" fill="#ffe0a3"/>
  </g>
  <text x="48" y="42" fill="#fff7df" stroke="#32160b" stroke-width="3" paint-order="stroke" text-anchor="middle" font-family="Arial Black,Arial,sans-serif" font-size="29" font-weight="900">+1</text>
</svg>
