<svg xmlns="http://www.w3.org/2000/svg" viewBox="0 0 96 96" role="img" aria-label="Hoi Office Ledger Emblem">
  <defs>
    <linearGradient id="plate" x1="12" y1="6" x2="84" y2="90" gradientUnits="userSpaceOnUse">
      <stop offset="0" stop-color="#fff3b0"/>
      <stop offset="0.46" stop-color="#d69b2d"/>
      <stop offset="1" stop-color="#6e3d07"/>
    </linearGradient>
    <linearGradient id="paper" x1="26" y1="18" x2="70" y2="76" gradientUnits="userSpaceOnUse">
      <stop offset="0" stop-color="#fffdf2"/>
      <stop offset="1" stop-color="#f3d58b"/>
    </linearGradient>
    <filter id="glow" x="-40%" y="-40%" width="180%" height="180%">
      <feGaussianBlur stdDeviation="2.2" result="blur"/>
      <feMerge>
        <feMergeNode in="blur"/>
        <feMergeNode in="SourceGraphic"/>
      </feMerge>
    </filter>
  </defs>
  <path d="M48 5 85 20v26c0 21-14 36-37 45C25 82 11 67 11 46V20L48 5Z" fill="url(#plate)" stroke="#ffe49a" stroke-width="3" filter="url(#glow)"/>
  <path d="M29 20h35l9 9v42H29V20Z" fill="url(#paper)" stroke="#71420c" stroke-width="3"/>
  <path d="M64 20v11h10" fill="none" stroke="#71420c" stroke-width="3" stroke-linecap="round"/>
  <path d="M37 39h22M37 49h22M37 59h15" stroke="#71420c" stroke-width="4" stroke-linecap="round"/>
  <circle cx="62" cy="61" r="13" fill="#b51616" stroke="#ffd56b" stroke-width="3"/>
  <path d="M54 61h16M62 53v16" stroke="#ffd56b" stroke-width="3" stroke-linecap="round"/>
  <path d="M38 75h20" stroke="#fff0b6" stroke-width="3" stroke-linecap="round" opacity=".8"/>
</svg>
